<svg data-name="Layer 1" xmlns="http://www.w3.org/2000/svg" viewBox="0 0 90 78.97"><path fill="#fede19" d="M0 51.27C0 22.48 26.6 4.91 30.73 2.72c3-1.63 5.76-2.72 7.66-2.72 1.65 0 2.75.8 2.75 2.19s-1.39 3-2.75 4.1c-3.82 2.75-14.54 17-14.54 30.47 0 3.55 1.92 6.83 4.11 7.95 2.48 1.36 14 3.84 14 18.35a16 16 0 01-16.46 15.9C12.89 78.96 0 69.38 0 51.27zM48 51.27C48 22.48 74.64 4.91 78.74 2.72c3-1.63 5.77-2.72 7.69-2.72 1.65 0 2.72.8 2.72 2.19s-1.36 3-2.72 4.1c-3.84 2.75-14.54 17-14.54 30.47 0 3.55 1.92 6.83 4.11 7.95 2.48 1.36 14 3.84 14 18.35a16.05 16.05 0 01-16.48 15.9C60.92 78.96 48 69.38 48 51.27z"/></svg>