<svg data-name="Layer 1" xmlns="http://www.w3.org/2000/svg" viewBox="0 0 24 24"><path fill="none" d="M0 0h24v24H0z"/><path fill="#fede19" d="M14.1 15.63l.67-.67.79-.78a1.92 1.92 0 012.86 0l2.43 2.43a1.94 1.94 0 010 2.9 4.73 4.73 0 01-.84.63l-.27.17c-.25.16-.52.32-.79.47l-.35.2a4.74 4.74 0 01-3.63.29l-.54-.19q-.63-.24-1.38-.6a19.89 19.89 0 01-4.2-2.68 18.76 18.76 0 01-1.53-1.42c-.39-.41-.76-.83-1.11-1.27a20.77 20.77 0 01-2.75-4.54c-.24-.57-.46-1.05-.6-1.5-.09-.28-.15-.48-.17-.55a4.45 4.45 0 01.48-3.62l.2-.3.48-.68.2-.26c.17-.21.33-.39.46-.53a2 2 0 012.87 0l2.41 2.42a1.93 1.93 0 010 2.92L9 9.29c-.33.34-.33.34-.62.62l-.23.23c.06.14.15.36.28.64a15.62 15.62 0 00.84 1.56 7.38 7.38 0 001.06 1.35 9.18 9.18 0 001.19 1 13.6 13.6 0 001.66.94l.69.31zm-6-5.56zm12 7.24l-2.42-2.42a.94.94 0 00-1.46 0l-.78.78-.68.67-.31.31a.92.92 0 01-1 .19c-.16-.06-.45-.18-.81-.36a14.38 14.38 0 01-1.79-1 9.7 9.7 0 01-1.32-1.06 8.51 8.51 0 01-1.13-1.55 15 15 0 01-.91-1.67c-.15-.35-.27-.61-.32-.76a.92.92 0 01.2-1l.28-.28.62-.62.81-.82a1 1 0 000-1.51l-2.4-2.4a.94.94 0 00-1.47 0 3.73 3.73 0 00-.37.43l-.19.24c-.15.2-.3.42-.45.64l-.2.3a3.55 3.55 0 00-.36 2.76c0 .09.08.27.17.52.15.43.33.91.56 1.42A20 20 0 007 14.48a15 15 0 001 1.2A16.79 16.79 0 009.49 17a18.72 18.72 0 004 2.55c.47.23.91.42 1.31.57l.51.18a3.76 3.76 0 002.81-.23l.34-.19.77-.45.25-.16a4 4 0 00.67-.49 1 1 0 00-.01-1.47z"/></svg>